# xmcd
#
# Track frame offsets: 
#        150
#        11876
#        22533
#        32662
#        44461
#        55032
#        69516
#        82615
#        94247
#        107631
#        117744
#        129561
#        139763
#        152047
#        166125
#        180893
#        194577
#        206426
#        217500
#        229154
#        243289
#        255934
#        266938
#        278001
#
# Disc length: 3838 seconds
#
# Revision: 1
# Processed by: cddbd v1.5.1PL2 Copyright (c) Steve Scherf et al.
# Submitted via: ExactAudioCopy v0.95b3
#
DISCID=390efc18
DTITLE=Various Artist - Solid Gold Vol. 2
DYEAR=2001
DGENRE=Oldie
TTITLE0=Jim Reeves - Welcome My World
TTITLE1=Ricky Nelson - Travelin' Man
TTITLE2=Johnny Horton - Honky Tonk Man
TTITLE3=Neil Sedaka - Happy Birthday Sweet Sixteen
TTITLE4=Connie Francis - Lipstick On Your Collar
TTITLE5=Sue Thomson - Sad Movies
TTITLE6=Hank Williams - Jambalaya
TTITLE7=Johnny CashRing Of Fire
TTITLE8=Patti Page - The Tennessee Waltz 
TTITLE9=Brenda Lee - I'm Sorry
TTITLE10=The Platters - Only You (And You Alone)
TTITLE11=Marilyn Monroe - River Of No Return
TTITLE12=Perry Como - That's More
TTITLE13=Dean Martin - Magic Moments
TTITLE14=Andy Williams - Exodus Song
TTITLE15=Four Aces - Three Coins In A Fountain
TTITLE16=Frankie Avalon - Why
TTITLE17=Frankie Laine - Rose, Rose, I Love You
TTITLE18=Pat Boone - Speedy Gonzales
TTITLE19=Bobby Darin - Mack The Knife
TTITLE20=Mary Wells - My Guy
TTITLE21=Gerry and The PaceMakers - You'll Never Walk Alone
TTITLE22=Perez Prado - Cherry Pink And Apple Blossom While
TTITLE23=The Champs - Tequila
EXTD=
EXTT0=
EXTT1=
EXTT2=
EXTT3=
EXTT4=
EXTT5=
EXTT6=
EXTT7=
EXTT8=
EXTT9=
EXTT10=
EXTT11=
EXTT12=
EXTT13=
EXTT14=
EXTT15=
EXTT16=
EXTT17=
EXTT18=
EXTT19=
EXTT20=
EXTT21=
EXTT22=
EXTT23=
PLAYORDER=
